<?xml version="1.0" encoding="UTF-8" ?>
<!DOCTYPE svg PUBLIC "-//W3C//DTD SVG 1.1//EN" "http://www.w3.org/Graphics/SVG/1.1/DTD/svg11.dtd">
<svg width="500pt" height="500pt" viewBox="0 0 500 500" version="1.1" xmlns="http://www.w3.org/2000/svg">
    <path fill="#fdfdfd" opacity="1.00" d=" M 194.21 148.28 C 210.60 139.24 229.22 134.33 247.93 134.01 C 270.41 133.58 292.98 139.85 311.95 151.93 C 335.52 166.73 353.41 190.32 361.23 217.04 C 369.05 243.18 367.20 272.09 356.06 297.01 C 344.68 322.85 323.51 344.18 297.74 355.74 C 274.50 366.31 247.73 368.79 222.92 362.81 C 201.53 357.75 181.75 346.33 166.49 330.53 C 160.03 324.51 155.07 317.03 148.33 311.31 C 148.32 310.98 148.31 310.30 148.30 309.96 C 158.92 305.63 168.10 298.22 176.01 290.01 C 192.82 272.25 202.28 247.53 200.90 223.08 C 200.34 201.76 191.62 180.86 177.28 165.12 C 180.19 162.06 182.33 158.30 185.69 155.67 C 188.60 153.29 191.20 150.54 194.21 148.28 M 210.12 167.90 C 227.25 196.87 230.70 233.40 219.61 265.14 C 223.21 265.80 226.90 265.78 230.50 266.49 C 245.42 268.93 259.42 276.25 270.19 286.82 C 282.20 298.59 289.71 314.53 291.83 331.16 C 308.76 322.50 322.77 308.33 331.40 291.40 C 339.75 275.11 343.04 256.23 340.55 238.07 C 338.04 218.30 328.68 199.49 314.54 185.46 C 300.74 171.53 282.31 162.28 262.89 159.57 C 245.01 157.00 226.31 159.83 210.12 167.90 M 213.35 281.36 C 212.25 282.63 211.16 283.93 210.34 285.41 C 204.04 296.62 195.56 306.51 185.97 315.04 C 209.01 338.30 245.11 347.22 276.35 337.46 C 275.85 317.45 264.06 298.14 246.42 288.60 C 236.46 282.83 224.77 280.69 213.35 281.36 Z" />
</svg>
